<svg width="166" height="91" viewBox="0 0 166 91" fill="none" xmlns="http://www.w3.org/2000/svg">
<path d="M159.38 0.313477H6.90941C3.46541 0.313477 0.67359 3.10539 0.673711 6.5494L0.676419 83.8591C0.67654 87.3031 3.46855 90.095 6.91256 90.095H159.383C162.827 90.095 165.619 87.3031 165.618 83.8591L165.616 6.5494C165.616 3.10539 162.824 0.313477 159.38 0.313477Z" fill="#F1F7FF" fill-opacity="0.9"/>
<path d="M155.948 6.54932H10.6509C8.58454 6.54932 6.90945 8.22447 6.90952 10.2909L6.91197 80.1332C6.91204 82.1996 8.58725 83.8747 10.6537 83.8747H155.951C158.017 83.8747 159.692 82.1996 159.692 80.1332L159.69 10.2909C159.689 8.22447 158.014 6.54932 155.948 6.54932Z" fill="white"/>
<path d="M19.3307 20.5223V20.9549H17.2061V20.5223H19.3307ZM17.3134 16.9428L17.3136 20.9549H16.7818L16.7816 16.9428H17.3134ZM19.0495 18.6678V19.1004H17.2061L17.206 18.6678H19.0495ZM19.303 16.9428V17.3782H17.206V16.9428H19.303ZM21.0643 20.5912C21.1855 20.5912 21.2976 20.5664 21.4004 20.5168C21.5033 20.4672 21.5878 20.3992 21.654 20.3129C21.7201 20.2247 21.7577 20.1246 21.7669 20.0125H22.2519C22.2427 20.1889 22.183 20.3533 22.0728 20.5058C21.9644 20.6564 21.8221 20.7786 21.6457 20.8723C21.4694 20.9641 21.2755 21.01 21.0643 21.01C20.8402 21.01 20.6445 20.9705 20.4773 20.8916C20.312 20.8126 20.1742 20.7042 20.064 20.5664C19.9556 20.4286 19.8738 20.2706 19.8187 20.0924C19.7654 19.9124 19.7388 19.7223 19.7388 19.522V19.4063C19.7388 19.2061 19.7654 19.0168 19.8187 18.8386C19.8738 18.6586 19.9555 18.4997 20.0639 18.3619C20.1741 18.2241 20.3119 18.1158 20.4772 18.0368C20.6444 17.9578 20.8401 17.9183 21.0642 17.9183C21.2975 17.9183 21.5014 17.966 21.6759 18.0616C21.8504 18.1553 21.9873 18.2838 22.0865 18.4473C22.1876 18.609 22.2427 18.7927 22.2519 18.9985H21.7669C21.7577 18.8754 21.7228 18.7642 21.6622 18.665C21.6034 18.5658 21.5225 18.4868 21.4197 18.4281C21.3186 18.3674 21.2001 18.3371 21.0642 18.3371C20.908 18.3371 20.7767 18.3684 20.6701 18.4308C20.5654 18.4914 20.4818 18.5741 20.4194 18.6788C20.3588 18.7817 20.3147 18.8965 20.2871 19.0233C20.2614 19.1482 20.2486 19.2759 20.2486 19.4063V19.522C20.2486 19.6525 20.2614 19.7811 20.2872 19.9078C20.3129 20.0346 20.3561 20.1494 20.4167 20.2523C20.4792 20.3551 20.5627 20.4378 20.6675 20.5003C20.774 20.5609 20.9063 20.5912 21.0643 20.5912ZM22.7041 19.4972V19.4338C22.7041 19.2189 22.7354 19.0196 22.7978 18.8359C22.8603 18.6503 22.9503 18.4896 23.0678 18.3537C23.1854 18.2159 23.3278 18.1093 23.4949 18.034C23.6621 17.9568 23.8495 17.9183 24.0571 17.9183C24.2665 17.9183 24.4548 17.9568 24.622 18.034C24.791 18.1093 24.9343 18.2159 25.0519 18.3537C25.1713 18.4896 25.2622 18.6503 25.3247 18.8359C25.3872 19.0196 25.4184 19.2189 25.4184 19.4338V19.4972C25.4184 19.7122 25.3872 19.9115 25.3247 20.0952C25.2623 20.2789 25.1713 20.4396 25.0519 20.5774C24.9344 20.7134 24.792 20.8199 24.6248 20.8971C24.4595 20.9724 24.2721 21.01 24.0627 21.01C23.8533 21.01 23.665 20.9724 23.4978 20.8971C23.3306 20.8199 23.1873 20.7134 23.0679 20.5774C22.9503 20.4396 22.8603 20.2789 22.7978 20.0952C22.7354 19.9115 22.7041 19.7122 22.7041 19.4972ZM23.2139 19.4338V19.4972C23.2139 19.646 23.2314 19.7866 23.2663 19.9188C23.3012 20.0493 23.3536 20.165 23.4234 20.266C23.495 20.3671 23.5841 20.447 23.6907 20.5058C23.7972 20.5627 23.9212 20.5912 24.0627 20.5912C24.2023 20.5912 24.3245 20.5627 24.4292 20.5058C24.5357 20.447 24.6239 20.3671 24.6937 20.266C24.7635 20.165 24.8159 20.0493 24.8508 19.9188C24.8875 19.7866 24.9059 19.646 24.9059 19.4972V19.4338C24.9058 19.2869 24.8875 19.1482 24.8507 19.0178C24.8158 18.8855 24.7625 18.7688 24.6909 18.6678C24.6211 18.5649 24.5329 18.4841 24.4263 18.4253C24.3216 18.3665 24.1985 18.3371 24.0571 18.3371C23.9175 18.3371 23.7944 18.3665 23.6878 18.4253C23.5831 18.4841 23.495 18.5649 23.4233 18.6678C23.3535 18.7688 23.3012 18.8855 23.2663 19.0178C23.2314 19.1482 23.2139 19.2869 23.2139 19.4338ZM26.5788 18.5658L26.5789 20.9549H26.0663L26.0662 17.9734H26.5512L26.5788 18.5658ZM26.4741 19.3512L26.2371 19.3429C26.239 19.139 26.2656 18.9507 26.317 18.778C26.3685 18.6035 26.4447 18.4519 26.5457 18.3233C26.6468 18.1947 26.7726 18.0955 26.9232 18.0257C27.0739 17.9541 27.2484 17.9183 27.4468 17.9183C27.5864 17.9183 27.715 17.9385 27.8326 17.9789C27.9501 18.0175 28.0521 18.079 28.1385 18.1635C28.2248 18.248 28.2919 18.3564 28.3396 18.4887C28.3874 18.6209 28.4113 18.7808 28.4113 18.9682L28.4114 20.9549H27.9016L27.9015 18.993C27.9015 18.8368 27.8749 18.7119 27.8216 18.6182C27.7701 18.5245 27.6966 18.4565 27.6011 18.4143C27.5056 18.3702 27.3935 18.3481 27.2649 18.3481C27.1143 18.3481 26.9885 18.3748 26.8874 18.4281C26.7864 18.4813 26.7056 18.5548 26.6449 18.6485C26.5843 18.7422 26.5402 18.8497 26.5127 18.9709C26.487 19.0903 26.4741 19.2171 26.4741 19.3512ZM28.4058 19.0701L28.0641 19.1748C28.0659 19.0113 28.0925 18.8543 28.144 18.7036C28.1973 18.553 28.2735 18.4189 28.3727 18.3013C28.4737 18.1837 28.5977 18.091 28.7447 18.023C28.8916 17.9532 29.0597 17.9183 29.2489 17.9183C29.4088 17.9183 29.5502 17.9394 29.6733 17.9816C29.7982 18.0239 29.9029 18.0891 29.9875 18.1773C30.0738 18.2636 30.139 18.3748 30.1831 18.5107C30.2272 18.6467 30.2493 18.8083 30.2493 18.9957V20.9549H29.7368L29.7367 18.9902C29.7367 18.823 29.7101 18.6935 29.6568 18.6017C29.6054 18.508 29.5319 18.4428 29.4363 18.406C29.3427 18.3674 29.2306 18.3481 29.1002 18.3481C28.9881 18.3481 28.8889 18.3674 28.8026 18.406C28.7162 18.4446 28.6437 18.4979 28.5849 18.5658C28.5261 18.632 28.4811 18.7082 28.4499 18.7945C28.4205 18.8809 28.4058 18.9727 28.4058 19.0701ZM31.542 18.5658V20.9549H31.0295L31.0294 17.9734H31.5144L31.542 18.5658ZM31.4373 19.3512L31.2003 19.3429C31.2021 19.139 31.2287 18.9507 31.2802 18.778C31.3316 18.6035 31.4078 18.4519 31.5089 18.3233C31.6099 18.1947 31.7357 18.0955 31.8864 18.0257C32.037 17.9541 32.2115 17.9183 32.4099 17.9183C32.5496 17.9183 32.6782 17.9385 32.7957 17.9789C32.9133 18.0175 33.0153 18.079 33.1016 18.1635C33.188 18.248 33.255 18.3564 33.3028 18.4887C33.3505 18.6209 33.3744 18.7808 33.3744 18.9682L33.3745 20.9549H32.8647V18.993C32.8646 18.8368 32.838 18.7119 32.7847 18.6182C32.7333 18.5245 32.6598 18.4565 32.5643 18.4143C32.4687 18.3702 32.3567 18.3481 32.2281 18.3481C32.0775 18.3481 31.9516 18.3748 31.8506 18.4281C31.7495 18.4813 31.6687 18.5548 31.6081 18.6485C31.5475 18.7422 31.5034 18.8497 31.4758 18.9709C31.4501 19.0903 31.4373 19.2171 31.4373 19.3512ZM33.3689 19.0701L33.0272 19.1748C33.0291 19.0113 33.0557 18.8543 33.1071 18.7036C33.1604 18.553 33.2366 18.4189 33.3358 18.3013C33.4369 18.1837 33.5609 18.091 33.7078 18.023C33.8548 17.9532 34.0229 17.9183 34.2121 17.9183C34.3719 17.9183 34.5134 17.9394 34.6365 17.9816C34.7614 18.0239 34.8661 18.0891 34.9506 18.1773C35.037 18.2636 35.1022 18.3748 35.1463 18.5107C35.1904 18.6467 35.2124 18.8083 35.2124 18.9957L35.2125 20.9549H34.6999V18.9902C34.6999 18.823 34.6732 18.6935 34.62 18.6017C34.5685 18.508 34.495 18.4428 34.3995 18.406C34.3058 18.3674 34.1937 18.3481 34.0633 18.3481C33.9513 18.3481 33.8521 18.3674 33.7657 18.406C33.6794 18.4446 33.6068 18.4979 33.548 18.5658C33.4892 18.632 33.4442 18.7082 33.413 18.7945C33.3836 18.8809 33.3689 18.9727 33.3689 19.0701ZM37.2354 21.01C37.0278 21.01 36.8395 20.9751 36.6705 20.9053C36.5034 20.8337 36.3591 20.7336 36.2379 20.605C36.1185 20.4764 36.0266 20.3239 35.9623 20.1475C35.898 19.9712 35.8659 19.7783 35.8658 19.5689V19.4531C35.8658 19.2106 35.9016 18.9948 35.9733 18.8056C36.0449 18.6145 36.1423 18.4529 36.2654 18.3206C36.3884 18.1883 36.5281 18.0882 36.6842 18.0202C36.8404 17.9523 37.002 17.9183 37.1692 17.9183C37.3823 17.9183 37.566 17.955 37.7203 18.0285C37.8765 18.102 38.0041 18.2049 38.1033 18.3371C38.2026 18.4676 38.276 18.6219 38.3238 18.8001C38.3716 18.9764 38.3955 19.1693 38.3955 19.3787V19.6074H36.169L36.1689 19.1914H37.8857V19.1528C37.8783 19.0205 37.8508 18.8919 37.803 18.767C37.7571 18.6421 37.6836 18.5392 37.5825 18.4584C37.4815 18.3775 37.3437 18.3371 37.1692 18.3371C37.0535 18.3371 36.9469 18.3619 36.8496 18.4115C36.7522 18.4593 36.6686 18.5309 36.5988 18.6265C36.529 18.722 36.4748 18.8386 36.4362 18.9764C36.3977 19.1142 36.3784 19.2731 36.3784 19.4531V19.5689C36.3784 19.7103 36.3977 19.8435 36.4363 19.9684C36.4767 20.0915 36.5346 20.1999 36.6099 20.2936C36.687 20.3873 36.7798 20.4608 36.8882 20.514C36.9984 20.5673 37.1234 20.594 37.263 20.594C37.443 20.594 37.5955 20.5572 37.7204 20.4837C37.8453 20.4102 37.9546 20.312 38.0483 20.1889L38.3569 20.4341C38.2926 20.5315 38.2109 20.6243 38.1117 20.7124C38.0125 20.8006 37.8903 20.8723 37.7452 20.9274C37.6019 20.9825 37.432 21.01 37.2354 21.01ZM39.5145 18.4418L39.5146 20.9549H39.0048L39.0047 17.9734H39.5007L39.5145 18.4418ZM40.4459 17.9568L40.4432 18.4308C40.4009 18.4216 40.3605 18.4161 40.3219 18.4143C40.2852 18.4106 40.2429 18.4088 40.1952 18.4088C40.0776 18.4088 39.9738 18.4271 39.8838 18.4639C39.7938 18.5006 39.7175 18.5521 39.6551 18.6182C39.5926 18.6843 39.543 18.7633 39.5063 18.8552C39.4714 18.9452 39.4484 19.0444 39.4374 19.1528L39.2941 19.2354C39.2941 19.0554 39.3116 18.8864 39.3465 18.7284C39.3832 18.5704 39.4392 18.4308 39.5145 18.3096C39.5899 18.1865 39.6854 18.091 39.8011 18.023C39.9187 17.9532 40.0583 17.9183 40.22 17.9183C40.2567 17.9183 40.299 17.9229 40.3467 17.932C40.3945 17.9394 40.4275 17.9477 40.4459 17.9568ZM42.0694 20.5912C42.1906 20.5912 42.3027 20.5664 42.4056 20.5168C42.5084 20.4672 42.5929 20.3992 42.6591 20.3129C42.7252 20.2247 42.7629 20.1246 42.772 20.0125H43.257C43.2478 20.1889 43.1881 20.3533 43.0779 20.5058C42.9695 20.6564 42.8272 20.7786 42.6508 20.8723C42.4745 20.9641 42.2807 21.01 42.0694 21.01C41.8453 21.01 41.6496 20.9705 41.4825 20.8916C41.3171 20.8126 41.1793 20.7042 41.0691 20.5664C40.9607 20.4286 40.879 20.2706 40.8238 20.0924C40.7706 19.9124 40.7439 19.7223 40.7439 19.522V19.4063C40.7439 19.2061 40.7705 19.0168 40.8238 18.8386C40.8789 18.6586 40.9606 18.4997 41.069 18.3619C41.1792 18.2241 41.317 18.1158 41.4824 18.0368C41.6495 17.9578 41.8452 17.9183 42.0693 17.9183C42.3026 17.9183 42.5065 17.966 42.681 18.0616C42.8556 18.1553 42.9924 18.2838 43.0916 18.4473C43.1927 18.609 43.2478 18.7927 43.257 18.9985H42.772C42.7628 18.8754 42.7279 18.7642 42.6673 18.665C42.6085 18.5658 42.5277 18.4868 42.4248 18.4281C42.3237 18.3674 42.2052 18.3371 42.0693 18.3371C41.9132 18.3371 41.7818 18.3684 41.6753 18.4308C41.5705 18.4914 41.487 18.5741 41.4245 18.6788C41.3639 18.7817 41.3198 18.8965 41.2923 19.0233C41.2665 19.1482 41.2537 19.2759 41.2537 19.4063V19.522C41.2537 19.6525 41.2666 19.7811 41.2923 19.9078C41.318 20.0346 41.3612 20.1494 41.4218 20.2523C41.4843 20.3551 41.5679 20.4378 41.6726 20.5003C41.7791 20.5609 41.9114 20.5912 42.0694 20.5912ZM45.0816 21.01C44.874 21.01 44.6857 20.9751 44.5167 20.9053C44.3495 20.8337 44.2053 20.7336 44.0841 20.605C43.9646 20.4764 43.8728 20.3239 43.8085 20.1475C43.7442 19.9712 43.712 19.7783 43.712 19.5689V19.4531C43.712 19.2106 43.7478 18.9948 43.8195 18.8056C43.8911 18.6145 43.9885 18.4529 44.1115 18.3206C44.2346 18.1883 44.3742 18.0882 44.5304 18.0202C44.6865 17.9523 44.8482 17.9183 45.0154 17.9183C45.2284 17.9183 45.4122 17.955 45.5665 18.0285C45.7226 18.102 45.8503 18.2049 45.9495 18.3371C46.0487 18.4676 46.1222 18.6219 46.17 18.8001C46.2177 18.9764 46.2416 19.1693 46.2416 19.3787V19.6074H44.0151V19.1914H45.7318V19.1528C45.7245 19.0205 45.6969 18.8919 45.6492 18.767C45.6032 18.6421 45.5297 18.5392 45.4287 18.4584C45.3277 18.3775 45.1899 18.3371 45.0154 18.3371C44.8996 18.3371 44.7931 18.3619 44.6957 18.4115C44.5984 18.4593 44.5148 18.5309 44.445 18.6265C44.3752 18.722 44.321 18.8386 44.2824 18.9764C44.2438 19.1142 44.2245 19.2731 44.2245 19.4531L44.2246 19.5689C44.2246 19.7103 44.2439 19.8435 44.2824 19.9684C44.3229 20.0915 44.3807 20.1999 44.456 20.2936C44.5332 20.3873 44.626 20.4608 44.7344 20.514C44.8446 20.5673 44.9695 20.594 45.1091 20.594C45.2892 20.594 45.4416 20.5572 45.5666 20.4837C45.6915 20.4102 45.8008 20.312 45.8945 20.1889L46.2031 20.4341C46.1388 20.5315 46.0571 20.6243 45.9579 20.7124C45.8587 20.8006 45.7365 20.8723 45.5914 20.9274C45.4481 20.9825 45.2782 21.01 45.0816 21.01ZM49.4581 20.5912C49.5794 20.5912 49.6914 20.5664 49.7943 20.5168C49.8972 20.4672 49.9817 20.3992 50.0478 20.3129C50.1139 20.2247 50.1516 20.1246 50.1608 20.0125H50.6458C50.6366 20.1889 50.5769 20.3533 50.4667 20.5058C50.3583 20.6564 50.2159 20.7786 50.0396 20.8723C49.8632 20.9641 49.6694 21.01 49.4581 21.01C49.234 21.01 49.0384 20.9705 48.8712 20.8916C48.7059 20.8126 48.5681 20.7042 48.4578 20.5664C48.3494 20.4286 48.2677 20.2706 48.2126 20.0924C48.1593 19.9124 48.1327 19.7223 48.1326 19.522V19.4063C48.1326 19.2061 48.1593 19.0168 48.2125 18.8386C48.2676 18.6586 48.3494 18.4997 48.4578 18.3619C48.568 18.2241 48.7058 18.1158 48.8711 18.0368C49.0383 17.9578 49.2339 17.9183 49.458 17.9183C49.6913 17.9183 49.8953 17.966 50.0698 18.0616C50.2443 18.1553 50.3812 18.2838 50.4804 18.4473C50.5814 18.609 50.6365 18.7927 50.6457 18.9985H50.1607C50.1516 18.8754 50.1166 18.7642 50.056 18.665C49.9972 18.5658 49.9164 18.4868 49.8135 18.4281C49.7125 18.3674 49.594 18.3371 49.458 18.3371C49.3019 18.3371 49.1705 18.3684 49.064 18.4308C48.9593 18.4914 48.8757 18.5741 48.8132 18.6788C48.7526 18.7817 48.7085 18.8965 48.681 19.0233C48.6553 19.1482 48.6424 19.2759 48.6424 19.4063V19.522C48.6424 19.6525 48.6553 19.7811 48.681 19.9078C48.7067 20.0346 48.7499 20.1494 48.8105 20.2523C48.873 20.3551 48.9566 20.4378 49.0613 20.5003C49.1679 20.5609 49.3001 20.5912 49.4581 20.5912ZM51.098 19.4972V19.4338C51.098 19.2189 51.1292 19.0196 51.1917 18.8359C51.2541 18.6503 51.3441 18.4896 51.4617 18.3537C51.5793 18.2159 51.7216 18.1093 51.8888 18.034C52.056 17.9568 52.2433 17.9183 52.4509 17.9183C52.6604 17.9183 52.8487 17.9568 53.0158 18.034C53.1848 18.1093 53.3281 18.2159 53.4457 18.3537C53.5651 18.4896 53.6561 18.6503 53.7185 18.8359C53.781 19.0196 53.8122 19.2189 53.8122 19.4338L53.8123 19.4972C53.8123 19.7122 53.781 19.9115 53.7186 20.0952C53.6561 20.2789 53.5652 20.4396 53.4458 20.5774C53.3282 20.7134 53.1859 20.8199 53.0187 20.8971C52.8534 20.9724 52.666 21.01 52.4566 21.01C52.2471 21.01 52.0588 20.9724 51.8917 20.8971C51.7245 20.8199 51.5812 20.7134 51.4618 20.5774C51.3442 20.4396 51.2542 20.2789 51.1917 20.0952C51.1292 19.9115 51.098 19.7122 51.098 19.4972ZM51.6078 19.4338V19.4972C51.6078 19.646 51.6252 19.7866 51.6601 19.9188C51.6951 20.0493 51.7474 20.165 51.8172 20.266C51.8889 20.3671 51.978 20.447 52.0845 20.5058C52.1911 20.5627 52.3151 20.5912 52.4565 20.5912C52.5962 20.5912 52.7183 20.5627 52.823 20.5058C52.9296 20.447 53.0178 20.3671 53.0876 20.266C53.1574 20.165 53.2097 20.0493 53.2446 19.9188C53.2813 19.7866 53.2997 19.646 53.2997 19.4972V19.4338C53.2997 19.2869 53.2813 19.1482 53.2446 19.0178C53.2097 18.8855 53.1564 18.7688 53.0847 18.6678C53.0149 18.5649 52.9268 18.4841 52.8202 18.4253C52.7155 18.3665 52.5924 18.3371 52.4509 18.3371C52.3113 18.3371 52.1882 18.3665 52.0817 18.4253C51.977 18.4841 51.8888 18.5649 51.8172 18.6678C51.7474 18.7688 51.695 18.8855 51.6601 19.0178C51.6252 19.1482 51.6078 19.2869 51.6078 19.4338ZM54.9754 18.6099L54.9755 20.9549H54.4657L54.4656 17.9734H54.9478L54.9754 18.6099ZM54.8542 19.3512L54.642 19.3429C54.6438 19.139 54.6741 18.9507 54.7329 18.778C54.7917 18.6035 54.8744 18.4519 54.9809 18.3233C55.0875 18.1947 55.2142 18.0955 55.3612 18.0257C55.51 17.9541 55.6744 17.9183 55.8544 17.9183C56.0014 17.9183 56.1337 17.9385 56.2512 17.9789C56.3688 18.0175 56.4689 18.0799 56.5516 18.1663C56.6361 18.2526 56.7004 18.3647 56.7445 18.5025C56.7886 18.6384 56.8106 18.8047 56.8107 19.0012V20.9549H56.2982L56.2981 18.9957C56.2981 18.8396 56.2751 18.7146 56.2292 18.6209C56.1833 18.5254 56.1162 18.4565 56.028 18.4143C55.9399 18.3702 55.8315 18.3481 55.7029 18.3481C55.5761 18.3481 55.4604 18.3748 55.3557 18.4281C55.2528 18.4813 55.1637 18.5548 55.0884 18.6485C55.0149 18.7422 54.9571 18.8497 54.9148 18.9709C54.8744 19.0903 54.8542 19.2171 54.8542 19.3512ZM58.5057 20.4947L59.3213 17.9734H59.8421L58.7703 20.9549H58.4286L58.5057 20.4947ZM57.825 17.9734L58.6655 20.5085L58.7234 20.9549H58.3817L57.3014 17.9734H57.825ZM61.5455 21.01C61.3379 21.01 61.1496 20.9751 60.9806 20.9053C60.8134 20.8337 60.6692 20.7336 60.548 20.605C60.4285 20.4764 60.3367 20.3239 60.2724 20.1475C60.2081 19.9712 60.1759 19.7783 60.1759 19.5689V19.4531C60.1759 19.2106 60.2117 18.9948 60.2834 18.8056C60.355 18.6145 60.4523 18.4529 60.5754 18.3206C60.6985 18.1883 60.8381 18.0882 60.9943 18.0202C61.1504 17.9523 61.3121 17.9183 61.4792 17.9183C61.6923 17.9183 61.8761 17.955 62.0304 18.0285C62.1865 18.102 62.3142 18.2049 62.4134 18.3371C62.5126 18.4676 62.5861 18.6219 62.6339 18.8001C62.6816 18.9764 62.7055 19.1693 62.7055 19.3787V19.6074H60.479V19.1914H62.1957V19.1528C62.1884 19.0205 62.1608 18.8919 62.1131 18.767C62.0671 18.6421 61.9936 18.5392 61.8926 18.4584C61.7916 18.3775 61.6538 18.3371 61.4793 18.3371C61.3635 18.3371 61.257 18.3619 61.1596 18.4115C61.0623 18.4593 60.9787 18.5309 60.9089 18.6265C60.8391 18.722 60.7849 18.8386 60.7463 18.9764C60.7077 19.1142 60.6884 19.2731 60.6884 19.4531L60.6885 19.5689C60.6885 19.7103 60.7077 19.8435 60.7463 19.9684C60.7868 20.0915 60.8446 20.1999 60.9199 20.2936C60.9971 20.3873 61.0899 20.4608 61.1983 20.514C61.3085 20.5673 61.4334 20.594 61.573 20.594C61.7531 20.594 61.9055 20.5572 62.0305 20.4837C62.1554 20.4102 62.2647 20.312 62.3584 20.1889L62.667 20.4341C62.6027 20.5315 62.521 20.6243 62.4218 20.7124C62.3226 20.8006 62.2004 20.8723 62.0553 20.9274C61.912 20.9825 61.7421 21.01 61.5455 21.01ZM63.8246 18.4418L63.8247 20.9549H63.3149L63.3148 17.9734H63.8108L63.8246 18.4418ZM64.756 17.9568L64.7532 18.4308C64.711 18.4216 64.6706 18.4161 64.632 18.4143C64.5953 18.4106 64.553 18.4088 64.5052 18.4088C64.3877 18.4088 64.2839 18.4271 64.1939 18.4639C64.1038 18.5006 64.0276 18.5521 63.9651 18.6182C63.9027 18.6843 63.8531 18.7633 63.8164 18.8552C63.7815 18.9452 63.7585 19.0444 63.7475 19.1528L63.6042 19.2354C63.6042 19.0554 63.6216 18.8864 63.6565 18.7284C63.6933 18.5704 63.7493 18.4308 63.8246 18.3096C63.8999 18.1865 63.9954 18.091 64.1112 18.023C64.2287 17.9532 64.3684 17.9183 64.53 17.9183C64.5668 17.9183 64.609 17.9229 64.6568 17.932C64.7045 17.9394 64.7376 17.9477 64.756 17.9568ZM66.9774 20.1641C66.9774 20.0906 66.9609 20.0226 66.9278 19.9602C66.8966 19.8959 66.8313 19.838 66.7321 19.7866C66.6348 19.7333 66.4878 19.6874 66.2912 19.6488C66.1259 19.6139 65.9762 19.5725 65.8421 19.5248C65.7098 19.477 65.5968 19.4191 65.5031 19.3512C65.4113 19.2832 65.3405 19.2033 65.2909 19.1114C65.2413 19.0196 65.2165 18.9121 65.2165 18.789C65.2165 18.6715 65.2422 18.5603 65.2937 18.4556C65.3469 18.3509 65.4213 18.2581 65.5169 18.1773C65.6142 18.0965 65.7309 18.0331 65.8668 17.9872C66.0028 17.9412 66.1543 17.9183 66.3215 17.9183C66.5603 17.9183 66.7642 17.9605 66.9332 18.045C67.1022 18.1295 67.2318 18.2425 67.3218 18.384C67.4118 18.5236 67.4568 18.6788 67.4568 18.8497H66.947C66.947 18.767 66.9222 18.6871 66.8726 18.6099C66.8249 18.5309 66.7541 18.4657 66.6604 18.4143C66.5686 18.3628 66.4556 18.3371 66.3215 18.3371C66.18 18.3371 66.0652 18.3592 65.9771 18.4033C65.8907 18.4455 65.8273 18.4997 65.7869 18.5658C65.7483 18.632 65.7291 18.7018 65.7291 18.7753C65.7291 18.8304 65.7383 18.88 65.7566 18.9241C65.7768 18.9663 65.8117 19.0058 65.8613 19.0426C65.9109 19.0775 65.9808 19.1105 66.0708 19.1418C66.1608 19.173 66.2756 19.2042 66.4152 19.2354C66.6596 19.2906 66.8607 19.3567 67.0187 19.4338C67.1767 19.511 67.2943 19.6056 67.3714 19.7177C67.4486 19.8297 67.4872 19.9657 67.4872 20.1255C67.4872 20.2559 67.4596 20.3753 67.4045 20.4837C67.3513 20.5921 67.2732 20.6858 67.1703 20.7648C67.0693 20.842 66.948 20.9026 66.8066 20.9467C66.667 20.9889 66.5099 21.01 66.3354 21.01C66.0727 21.01 65.8504 20.9632 65.6685 20.8695C65.4866 20.7758 65.3489 20.6546 65.2552 20.5058C65.1615 20.357 65.1146 20.1999 65.1146 20.0346H65.6272C65.6345 20.1742 65.6749 20.2853 65.7484 20.368C65.8219 20.4488 65.9119 20.5067 66.0185 20.5416C66.125 20.5747 66.2306 20.5912 66.3354 20.5912C66.475 20.5912 66.5916 20.5728 66.6853 20.5361C66.7808 20.4993 66.8534 20.4488 66.903 20.3845C66.9526 20.3202 66.9774 20.2467 66.9774 20.1641ZM68.7247 17.9734L68.7248 20.9549H68.2123L68.2122 17.9734H68.7247ZM68.1736 17.1825C68.1735 17.0999 68.1983 17.0301 68.2479 16.9731C68.2994 16.9162 68.3747 16.8877 68.4739 16.8877C68.5713 16.8877 68.6457 16.9162 68.6971 16.9731C68.7504 17.0301 68.777 17.0999 68.777 17.1825C68.777 17.2615 68.7504 17.3295 68.6971 17.3864C68.6457 17.4416 68.5713 17.4691 68.4739 17.4691C68.3747 17.4691 68.2994 17.4416 68.248 17.3864C68.1984 17.3295 68.1736 17.2615 68.1736 17.1825ZM69.4222 19.4972V19.4338C69.4222 19.2189 69.4535 19.0196 69.5159 18.8359C69.5784 18.6503 69.6684 18.4896 69.7859 18.3537C69.9035 18.2159 70.0459 18.1093 70.213 18.034C70.3802 17.9568 70.5676 17.9183 70.7752 17.9183C70.9846 17.9183 71.1729 17.9568 71.3401 18.034C71.5091 18.1093 71.6524 18.2159 71.77 18.3537C71.8894 18.4896 71.9803 18.6503 72.0428 18.8359C72.1053 19.0196 72.1365 19.2189 72.1365 19.4338V19.4972C72.1365 19.7122 72.1053 19.9115 72.0428 20.0952C71.9804 20.2789 71.8895 20.4396 71.77 20.5774C71.6525 20.7134 71.5101 20.8199 71.3429 20.8971C71.1776 20.9724 70.9902 21.01 70.7808 21.01C70.5714 21.01 70.3831 20.9724 70.2159 20.8971C70.0487 20.8199 69.9054 20.7134 69.786 20.5774C69.6684 20.4396 69.5784 20.2789 69.516 20.0952C69.4535 19.9115 69.4223 19.7122 69.4222 19.4972ZM69.932 19.4338V19.4972C69.932 19.646 69.9495 19.7866 69.9844 19.9188C70.0193 20.0493 70.0717 20.165 70.1415 20.266C70.2131 20.3671 70.3022 20.447 70.4088 20.5058C70.5153 20.5627 70.6393 20.5912 70.7808 20.5912C70.9204 20.5912 71.0426 20.5627 71.1473 20.5058C71.2538 20.447 71.342 20.3671 71.4118 20.266C71.4816 20.165 71.534 20.0493 71.5689 19.9188C71.6056 19.7866 71.624 19.646 71.624 19.4972V19.4338C71.624 19.2869 71.6056 19.1482 71.5688 19.0178C71.5339 18.8855 71.4806 18.7688 71.409 18.6678C71.3392 18.5649 71.251 18.4841 71.1445 18.4253C71.0397 18.3665 70.9167 18.3371 70.7752 18.3371C70.6356 18.3371 70.5125 18.3665 70.406 18.4253C70.3012 18.4841 70.2131 18.5649 70.1414 18.6678C70.0716 18.7688 70.0193 18.8855 69.9844 19.0178C69.9495 19.1482 69.932 19.2869 69.932 19.4338ZM73.2997 18.6099V20.9549H72.79L72.7899 17.9734H73.2721L73.2997 18.6099ZM73.1784 19.3512L72.9663 19.3429C72.9681 19.139 72.9984 18.9507 73.0572 18.778C73.116 18.6035 73.1986 18.4519 73.3052 18.3233C73.4117 18.1947 73.5385 18.0955 73.6854 18.0257C73.8342 17.9541 73.9986 17.9183 74.1787 17.9183C74.3256 17.9183 74.4579 17.9385 74.5755 17.9789C74.6931 18.0175 74.7932 18.0799 74.8758 18.1663C74.9604 18.2526 75.0247 18.3647 75.0688 18.5025C75.1128 18.6384 75.1349 18.8047 75.1349 19.0012L75.135 20.9549H74.6224V18.9957C74.6224 18.8396 74.5994 18.7146 74.5535 18.6209C74.5075 18.5254 74.4405 18.4565 74.3523 18.4143C74.2641 18.3702 74.1557 18.3481 74.0271 18.3481C73.9004 18.3481 73.7846 18.3748 73.6799 18.4281C73.5771 18.4813 73.488 18.5548 73.4126 18.6485C73.3392 18.7422 73.2813 18.8497 73.2391 18.9709C73.1986 19.0903 73.1784 19.2171 73.1784 19.3512ZM77.847 18.4418V20.9549H77.337V17.9734H77.833L77.847 18.4418ZM78.778 17.9568L78.776 18.4308C78.733 18.4216 78.693 18.4161 78.654 18.4143C78.618 18.4106 78.575 18.4088 78.528 18.4088C78.41 18.4088 78.306 18.4271 78.216 18.4639C78.126 18.5006 78.05 18.5521 77.988 18.6182C77.925 18.6843 77.876 18.7633 77.839 18.8552C77.804 18.9452 77.781 19.0444 77.77 19.1528L77.627 19.2354C77.627 19.0554 77.644 18.8864 77.679 18.7284C77.716 18.5704 77.772 18.4308 77.847 18.3096C77.922 18.1865 78.018 18.091 78.134 18.023C78.251 17.9532 78.391 17.9183 78.552 17.9183C78.589 17.9183 78.631 17.9229 78.679 17.932C78.727 17.9394 78.76 17.9477 78.778 17.9568ZM80.912 20.4451V18.9103C80.912 18.7927 80.888 18.6908 80.84 18.6044C80.794 18.5162 80.724 18.4483 80.631 18.4005C80.537 18.3527 80.421 18.3289 80.283 18.3289C80.155 18.3289 80.042 18.3509 79.944 18.395C79.849 18.4391 79.774 18.4969 79.718 18.5686C79.665 18.6402 79.639 18.7174 79.639 18.8001H79.129C79.129 18.6935 79.156 18.5879 79.211 18.4832C79.267 18.3785 79.346 18.2838 79.448 18.1993C79.553 18.113 79.678 18.045 79.823 17.9954C79.97 17.944 80.134 17.9183 80.314 17.9183C80.53 17.9183 80.721 17.955 80.887 18.0285C81.054 18.102 81.184 18.2131 81.278 18.3619C81.374 18.5089 81.421 18.6935 81.421 18.9158V20.3046C81.421 20.4038 81.43 20.5094 81.446 20.6215C81.465 20.7336 81.491 20.83 81.526 20.9108V20.9549H80.994C80.969 20.8961 80.948 20.8181 80.934 20.7207C80.919 20.6215 80.912 20.5297 80.912 20.4451ZM81 19.1473L81.005 19.5055H80.49C80.345 19.5055 80.215 19.5174 80.101 19.5413C79.988 19.5634 79.892 19.5973 79.815 19.6433C79.738 19.6892 79.679 19.7471 79.639 19.8169C79.598 19.8848 79.578 19.9648 79.578 20.0566C79.578 20.1503 79.599 20.2357 79.641 20.3129C79.684 20.39 79.747 20.4516 79.831 20.4975C79.918 20.5416 80.023 20.5636 80.148 20.5636C80.305 20.5636 80.442 20.5306 80.562 20.4644C80.681 20.3983 80.776 20.3175 80.846 20.2219C80.917 20.1264 80.956 20.0336 80.961 19.9436L81.179 20.1889C81.166 20.266 81.131 20.3515 81.074 20.4451C81.017 20.5388 80.941 20.6289 80.846 20.7152C80.752 20.7997 80.64 20.8704 80.509 20.9274C80.381 20.9825 80.236 21.01 80.074 21.01C79.872 21.01 79.695 20.9705 79.542 20.8916C79.392 20.8126 79.274 20.7069 79.189 20.5747C79.107 20.4406 79.065 20.2908 79.065 20.1255C79.065 19.9657 79.097 19.8251 79.159 19.7039C79.222 19.5808 79.312 19.4789 79.429 19.398C79.547 19.3154 79.688 19.2529 79.853 19.2106C80.019 19.1684 80.203 19.1473 80.407 19.1473H81ZM83.486 17.9734V18.3647H81.874V17.9734H83.486ZM82.419 17.2487H82.929V20.2164C82.929 20.3175 82.945 20.3937 82.976 20.4451C83.007 20.4966 83.048 20.5306 83.097 20.5471C83.147 20.5636 83.2 20.5719 83.257 20.5719C83.299 20.5719 83.343 20.5682 83.389 20.5609C83.437 20.5517 83.473 20.5444 83.497 20.5388L83.5 20.9549C83.459 20.9678 83.406 20.9797 83.34 20.9908C83.275 21.0036 83.197 21.01 83.105 21.01C82.981 21.01 82.866 20.9852 82.761 20.9356C82.656 20.886 82.573 20.8034 82.51 20.6876C82.45 20.5701 82.419 20.4121 82.419 20.2137V17.2487ZM85.335 21.01C85.127 21.01 84.939 20.9751 84.77 20.9053C84.603 20.8337 84.459 20.7336 84.338 20.605C84.218 20.4764 84.126 20.3239 84.062 20.1475C83.998 19.9712 83.966 19.7783 83.965 19.5689V19.4531C83.965 19.2106 84.001 18.9948 84.073 18.8056C84.145 18.6145 84.242 18.4529 84.365 18.3206C84.488 18.1883 84.628 18.0882 84.784 18.0202C84.94 17.9523 85.102 17.9183 85.269 17.9183C85.482 17.9183 85.666 17.955 85.82 18.0285C85.976 18.102 86.104 18.2049 86.203 18.3371C86.302 18.4676 86.376 18.6219 86.423 18.8001C86.471 18.9764 86.495 19.1693 86.495 19.3787V19.6074H84.269V19.1914H85.985V19.1528C85.978 19.0205 85.95 18.8919 85.903 18.767C85.857 18.6421 85.783 18.5392 85.682 18.4584C85.581 18.3775 85.443 18.3371 85.269 18.3371C85.153 18.3371 85.047 18.3619 84.949 18.4115C84.852 18.4593 84.768 18.5309 84.698 18.6265C84.629 18.722 84.574 18.8386 84.536 18.9764C84.497 19.1142 84.478 19.2731 84.478 19.4531V19.5689C84.478 19.7103 84.497 19.8435 84.536 19.9684C84.576 20.0915 84.634 20.1999 84.71 20.2936C84.787 20.3873 84.879 20.4608 84.988 20.514C85.098 20.5673 85.223 20.594 85.363 20.594C85.543 20.594 85.695 20.5572 85.82 20.4837C85.945 20.4102 86.054 20.312 86.148 20.1889L86.457 20.4341C86.392 20.5315 86.311 20.6243 86.211 20.7124C86.112 20.8006 85.99 20.8723 85.845 20.9274C85.702 20.9825 85.532 21.01 85.335 21.01ZM87.082 20.6849C87.082 20.5985 87.109 20.526 87.162 20.4672C87.217 20.4066 87.296 20.3763 87.399 20.3763C87.502 20.3763 87.58 20.4066 87.634 20.4672C87.689 20.526 87.716 20.5985 87.716 20.6849C87.716 20.7694 87.689 20.841 87.634 20.8998C87.58 20.9586 87.502 20.988 87.399 20.988C87.296 20.988 87.217 20.9586 87.162 20.8998C87.109 20.841 87.082 20.7694 87.082 20.6849ZM87.085 18.2517C87.085 18.1654 87.112 18.0928 87.165 18.034C87.22 17.9734 87.299 17.9431 87.402 17.9431C87.505 17.9431 87.583 17.9734 87.636 18.034C87.691 18.0928 87.719 18.1654 87.719 18.2517C87.719 18.3362 87.691 18.4078 87.636 18.4666C87.583 18.5254 87.505 18.5548 87.402 18.5548C87.299 18.5548 87.22 18.5254 87.165 18.4666C87.112 18.4078 87.085 18.3362 87.085 18.2517Z" fill="#919191"/>
<path d="M22.301 36.243V37.3012H16.9221V36.3918L19.5343 33.5425C19.8209 33.2192 20.0468 32.94 20.2121 32.7048C20.3775 32.4697 20.4932 32.2584 20.5593 32.0711C20.6291 31.88 20.664 31.6945 20.664 31.5144C20.664 31.2609 20.6162 31.0386 20.5207 30.8476C20.4288 30.6528 20.2929 30.5004 20.1129 30.3901C19.9328 30.2762 19.7142 30.2193 19.457 30.2193C19.1594 30.2193 18.9096 30.2836 18.7075 30.4122C18.5054 30.5408 18.353 30.719 18.2501 30.9468C18.1472 31.1709 18.0958 31.4281 18.0958 31.7183H16.7676C16.7676 31.2517 16.8741 30.8255 17.0872 30.4397C17.3003 30.0503 17.6089 29.7417 18.0131 29.5139C18.4172 29.2824 18.904 29.1667 19.4735 29.1667C20.0099 29.1667 20.4655 29.2567 20.8403 29.4367C21.2151 29.6167 21.4998 29.8721 21.6946 30.2028C21.893 30.5334 21.9922 30.9247 21.9922 31.3766C21.9922 31.6265 21.9518 31.8745 21.871 32.1207C21.7902 32.3668 21.6744 32.613 21.5238 32.8592C21.3769 33.1016 21.2023 33.346 21.0003 33.5921C20.7982 33.8346 20.5759 34.0808 20.3334 34.3306L18.5975 36.243H22.301ZM23.6951 36.6398C23.6951 36.4341 23.7649 36.2614 23.9045 36.1218C24.0441 35.9785 24.2334 35.9068 24.4722 35.9068C24.7147 35.9068 24.9039 35.9785 25.0398 36.1218C25.1795 36.2614 25.2493 36.4341 25.2493 36.6398C25.2493 36.8456 25.1795 37.0183 25.0399 37.1579C24.9039 37.2975 24.7147 37.3673 24.4722 37.3673C24.2334 37.3673 24.0442 37.2975 23.9046 37.1579C23.7649 37.0183 23.6951 36.8456 23.6951 36.6398ZM30.5561 29.2493L30.5564 37.3012H29.2282L29.2279 30.8255L27.2605 31.4924L27.2604 30.3957L30.3962 29.2493H30.5561ZM33.5154 31.2444V30.82C33.5154 30.5151 33.5815 30.2377 33.7138 29.9878C33.846 29.738 34.0389 29.5377 34.2924 29.3871C34.546 29.2365 34.8509 29.1611 35.2073 29.1611C35.5747 29.1611 35.8833 29.2365 36.1332 29.3871C36.3867 29.5377 36.5796 29.738 36.7119 29.9878C36.8442 30.2377 36.9103 30.5151 36.9103 30.82V31.2444C36.9103 31.542 36.8442 31.8157 36.7119 32.0655C36.5834 32.3154 36.3923 32.5156 36.1388 32.6663C35.889 32.8169 35.5822 32.8922 35.2184 32.8922C34.8584 32.8922 34.5498 32.8169 34.2926 32.6663C34.039 32.5156 33.8461 32.3154 33.7139 32.0655C33.5816 31.8157 33.5154 31.542 33.5154 31.2444ZM34.4358 30.82V31.2444C34.4358 31.3913 34.4634 31.531 34.5185 31.6632C34.5773 31.7955 34.6655 31.902 34.783 31.9829C34.9006 32.0637 35.0457 32.1041 35.2184 32.1041C35.3948 32.1041 35.5381 32.0637 35.6483 31.9829C35.7622 31.902 35.8467 31.7955 35.9018 31.6632C35.9569 31.531 35.9844 31.3913 35.9844 31.2444V30.82C35.9844 30.6694 35.955 30.5279 35.8962 30.3957C35.8411 30.2597 35.7566 30.1513 35.6427 30.0705C35.5288 29.9897 35.3837 29.9492 35.2073 29.9492C35.0383 29.9492 34.895 29.9897 34.7775 30.0705C34.6636 30.1513 34.5772 30.2597 34.5184 30.3957C34.4633 30.5279 34.4358 30.6694 34.4358 30.82ZM37.3844 35.7635V35.3337C37.3844 35.0324 37.4505 34.7568 37.5828 34.507C37.7187 34.2572 37.9135 34.0569 38.167 33.9063C38.4205 33.7556 38.7254 33.6803 39.0818 33.6803C39.4492 33.6803 39.7579 33.7556 40.0077 33.9063C40.2612 34.0569 40.4523 34.2572 40.5809 34.507C40.7132 34.7568 40.7793 35.0324 40.7793 35.3337V35.7635C40.7793 36.0648 40.7132 36.3404 40.581 36.5902C40.4524 36.8401 40.2632 37.0403 40.0133 37.1909C39.7635 37.3416 39.4585 37.4169 39.0985 37.4169C38.7347 37.4169 38.4243 37.3416 38.1671 37.1909C37.9136 37.0403 37.7188 36.8401 37.5829 36.5902C37.4506 36.3404 37.3845 36.0648 37.3844 35.7635ZM38.3103 35.3337V35.7635C38.3103 35.9105 38.3397 36.0501 38.3985 36.1824C38.461 36.3147 38.551 36.4231 38.6686 36.5076C38.7861 36.5884 38.9276 36.6288 39.0929 36.6288C39.2803 36.6288 39.431 36.5884 39.5449 36.5076C39.6587 36.4231 39.7396 36.3165 39.7873 36.1879C39.8388 36.0556 39.8645 35.9142 39.8645 35.7635V35.3337C39.8645 35.183 39.8351 35.0416 39.7763 34.9093C39.7211 34.777 39.6348 34.6705 39.5172 34.5897C39.4033 34.5088 39.2582 34.4684 39.0818 34.4684C38.9092 34.4684 38.7659 34.5088 38.652 34.5897C38.5381 34.6705 38.4517 34.777 38.393 34.9093C38.3379 35.0416 38.3103 35.183 38.3103 35.3337ZM39.4124 30.4232L35.4941 36.6949L34.8162 36.3036L38.7345 30.0319L39.4124 30.4232Z" fill="#001E41"/>
<path d="M11.8407 78.1753L6.91208 71.1003L6.91248 83.875H159.693L159.692 76.21L154.764 67.1698L149.836 78.1753L144.907 69.1351L139.979 74.2448L135.05 63.2393L130.122 78.1753L125.193 71.1003L120.265 76.21L115.336 65.2046L110.408 74.2448L105.48 69.1351L100.552 78.1753L95.623 67.1698L90.695 76.21L85.766 51.4478L80.838 74.2448L75.909 57.3435L70.9814 78.1753L66.0527 71.1003L61.1238 54.5922L56.196 71.1003L51.2672 60.4879L46.339 65.2046L41.411 76.21L36.4824 71.1003L31.5543 78.1753L26.6254 63.2393L21.6974 74.2448L16.7687 65.2046L11.8407 78.1753Z" fill="url(#paint0_linear_40_5)"/>
<path d="M6.91119 71.3634L11.8419 78.4433L16.7719 65.4634L21.7026 74.51L26.6327 63.4967L31.5636 78.4433L36.4938 71.3634L41.4244 76.4767L46.3545 65.4634L51.2848 60.7434L56.2156 71.3634L61.1454 54.8434L66.0764 71.3634L71.0071 78.4433L75.9368 57.5968L80.868 74.51L85.798 51.6968L90.729 76.4767L95.659 67.43L100.59 78.4433L105.52 69.3967L110.45 74.51L115.381 65.4634L120.311 76.4767L125.242 71.3634L130.172 78.4433L135.102 63.4967L140.033 74.51L144.963 69.3967L149.894 78.4433L154.824 67.43L159.755 76.4767" stroke="#98CB56" stroke-width="0.940576" stroke-linecap="round"/>
<defs>
<linearGradient id="paint0_linear_40_5" x1="83.087" y1="48.2949" x2="83.087" y2="83.648" gradientUnits="userSpaceOnUse">
<stop stop-color="#98CB56"/>
<stop offset="0.0001" stop-color="#98CB56" stop-opacity="0.46"/>
<stop offset="1" stop-color="#98CB56" stop-opacity="0.1"/>
</linearGradient>
</defs>
</svg>
